<?xml version="1.0" encoding="utf-8"?>
<!-- Generator: Adobe Illustrator 23.0.1, SVG Export Plug-In . SVG Version: 6.00 Build 0)  -->
<svg version="1.1" id="Layer_1" xmlns="http://www.w3.org/2000/svg" xmlns:xlink="http://www.w3.org/1999/xlink" x="0px" y="0px" width="150" height="150"
	 viewBox="0 0 500 500" style="enable-background:new 0 0 500 500;" xml:space="preserve">
<path d="M250,36C131.5,36,35.5,132,35.5,250.5C35.5,369,131.5,465,250,465s214.5-96,214.5-214.5C464.5,132,368.5,36,250,36z
	 M247.2,111.2c6.2-6.7,13.4-10.1,21.6-10.1c6.6,0,12.1,2.4,16.4,7.1c4.4,4.7,6.5,10.6,6.5,17.4c0,8.7-3.1,16.5-9.3,23.3
	c-6.2,6.9-13.4,10.3-21.6,10.3c-6.6,0-12.1-2.4-16.4-7.1c-4.4-4.7-6.5-10.7-6.5-17.8C237.9,125.7,241,117.9,247.2,111.2z
	 M269.7,358.2c-16,12-29.5,18-40.6,18c-5.8,0-10.8-1.9-14.8-5.7c-4.1-3.8-6.1-9.4-6.1-16.8c0-2.9,0.5-8,1.6-15.2
	c1.1-7.3,1.8-11.9,2.4-14l14.6-75.2c0.5-2.6,0.8-5.7,0.8-9.1c0-6.3-1.3-9.5-4-9.5c-3.7,0-8.9,2.8-15.6,8.3
	c-6.7,5.5-11.2,9.8-13.3,12.7c-0.5,0-1.9-1.3-4.2-4c-2.2-2.6-3.4-4.5-3.4-5.5c2.9-7.1,12.3-16.7,28.3-28.7c16-12,29.5-18,40.6-18
	c6.1,0,11.1,1.9,15,5.7c4,3.8,5.9,9.4,5.9,16.8c0,2.9-0.5,8-1.6,15.2c-1.1,7.3-1.8,11.9-2.4,14l-14.6,75.2c-0.5,1.6-0.8,4.6-0.8,9.1
	c0,6.3,1.3,9.5,4,9.5c3.7,0,8.9-2.8,15.6-8.3c6.7-5.5,11.1-9.8,13.3-12.7c0.8,0,2.2,1.3,4.4,4c2.1,2.6,3.2,4.5,3.2,5.5
	C295.1,336.6,285.7,346.2,269.7,358.2z"/>
</svg>
