<svg xmlns="http://www.w3.org/2000/svg" style="isolation:isolate" width="127" height="114">
  <defs>
    <clipPath id="a">
      <path d="M0 0h127v114H0z"/>
    </clipPath>
  </defs>
  <g clip-path="url(#a)">
    <path d="M54.695 71.231c.133-.416.26-.839.386-1.263.05-.166.1-.332.148-.499a67.565 67.565 0 0 0 .498-1.813c.098-.378.195-.759.289-1.144.058-.239.114-.481.17-.722.087-.373.173-.746.255-1.125.058-.267.112-.538.167-.808.075-.366.151-.729.221-1.099s.133-.747.199-1.122c.09-.521.176-1.047.257-1.578.061-.397.122-.792.177-1.194.042-.303.078-.611.117-.916a73.192 73.192 0 0 0 .354-3.363 87.122 87.122 0 0 0 .161-2.253c.018-.295.036-.59.05-.889.025-.497.043-1.002.059-1.507.008-.253.02-.504.026-.759.018-.764.03-1.536.03-2.319V1H1v57.258h25.553C27.16 79.207 1 88.782 1 88.782l13.287 23.341s27.067-7.267 38.728-36.222l.001-.004a65.992 65.992 0 0 0 1.627-4.509l.052-.157zM122.857 71.231c.133-.416.26-.839.386-1.263.05-.166.1-.332.148-.499a67.565 67.565 0 0 0 .498-1.813c.098-.378.195-.759.289-1.144.058-.239.114-.481.17-.722.087-.373.173-.746.255-1.125.058-.267.112-.538.167-.808.075-.366.151-.729.221-1.099s.133-.747.199-1.122c.09-.521.176-1.047.257-1.578.061-.397.122-.792.177-1.194.042-.303.078-.611.117-.916a73.192 73.192 0 0 0 .354-3.363 87.122 87.122 0 0 0 .161-2.253c.018-.295.036-.59.05-.889.025-.497.043-1.002.059-1.507.008-.253.02-.504.026-.759.018-.764.03-1.536.03-2.319V1H69.162v57.258h25.553c.607 20.949-25.553 30.524-25.553 30.524l13.287 23.341s27.067-7.267 38.728-36.222l.001-.004a65.992 65.992 0 0 0 1.627-4.509l.052-.157z"/>
  </g>
</svg>
