<?xml version="1.0" encoding="utf-8"?>
<!-- Generator: Adobe Illustrator 23.0.1, SVG Export Plug-In . SVG Version: 6.00 Build 0)  -->
<svg version="1.1" id="Layer_1" xmlns="http://www.w3.org/2000/svg" xmlns:xlink="http://www.w3.org/1999/xlink" x="0px" y="0px" width="150" height="150"
	 viewBox="0 0 500 500" style="enable-background:new 0 0 500 500;" xml:space="preserve">
<g>
	<path d="M155.3,370.4c14.9,28.2,33.4,45.5,53.1,49.8v-92.4c-23.5,0.6-46.3,3.7-67.2,8.8C145.1,348.8,149.8,360.1,155.3,370.4z"/>
	<path d="M136.1,318.8c22.6-5.6,47-8.9,72.3-9.5v-60.1H127C127.6,273.6,130.7,297.1,136.1,318.8z"/>
	<path d="M155.3,109.1c-4.8,9.1-9,19-12.6,29.5c20.5,4.9,42.7,7.8,65.7,8.4V59.3C188.7,63.6,170.1,80.9,155.3,109.1z"/>
	<path d="M127,230.5h81.4v-64.8c-24.8-0.6-48.9-3.8-71.1-9.3C131.2,179.2,127.7,204.3,127,230.5z"/>
	<path d="M138.8,100.4c7-13.3,14.9-24.6,23.4-33.7c-27.2,8.7-52.2,23.8-73,44.6c-1.6,1.6-3.2,3.3-4.8,5c12,6.8,25.5,12.6,40.2,17.2
		C128.7,121.8,133.4,110.6,138.8,100.4z"/>
	<path d="M123.3,341.7c-15.3,4.9-29.4,11.1-41.6,18.4c2.4,2.8,5,5.5,7.6,8.1c20.8,20.8,45.8,35.9,73,44.6
		c-8.5-9.1-16.4-20.4-23.4-33.7C132.8,367.7,127.6,355.1,123.3,341.7z"/>
	<path d="M119.3,151.4c-17.3-5.4-33.1-12.3-47-20.5c-21.7,28.8-34.2,63.2-36,99.6h72.1C109,202.6,112.8,175.8,119.3,151.4z"/>
	<path d="M108.3,249.1H36.3c1.8,35,13.4,68.2,33.6,96.4c14.1-8.7,30.4-15.9,48.2-21.6C112.3,300.6,109,275.3,108.3,249.1z"/>
	<path d="M299.2,156.1c-22.5,5.6-47,8.9-72.2,9.5v64.8h82.5C308.9,204.2,305.3,179,299.2,156.1z"/>
	<path d="M311.7,133.3c14.3-4.6,27.5-10.3,39.2-16.9c-1.6-1.7-3.2-3.4-4.8-5C325.7,91,301.3,76,274.7,67.2c8.4,9,16.1,20.1,23,33.2
		C303,110.5,307.7,121.6,311.7,133.3z"/>
	<path d="M295.2,336.9c-21.2-5.3-44.3-8.4-68.2-9.1v92.7c20.1-3.9,39.1-21.4,54.2-50.1C286.6,360.2,291.3,349,295.2,336.9z"/>
	<path d="M281.2,109.1C266.1,80.4,247.1,62.9,227,59v88c23.4-0.6,46-3.6,66.8-8.7C290.2,127.9,286,118.1,281.2,109.1z"/>
	<path d="M309.5,249.1H227v60.1c25.7,0.7,50.5,4,73.4,9.8C305.8,297.3,308.9,273.7,309.5,249.1z"/>
	<path d="M433.2,332.7V145.7c0-17.5-14.3-31.8-31.8-31.8c-15.8,0-29,11.7-31.4,26.8c-2.2-3.3-4.4-6.6-6.9-9.8
		c-13.6,8-29.1,14.8-45.9,20.2c6.6,24.5,10.3,51.4,11,79.4h41.4v18.6h-41.4c-0.6,26.3-4,51.7-9.9,75.1c14.5,4.7,28,10.5,40,17.2
		c-4.5,4.4-8.4,9.4-11.4,15c-10.3-5.5-21.6-10.2-33.7-14.2c-4.3,13.3-9.4,25.7-15.4,37.1c-6.9,13.1-14.6,24.2-23,33.2
		c24.2-8,46.6-21.1,65.8-38.8c-0.8,4-1.2,8.2-1.2,12.4c0,34.3,27.8,62.1,62.1,62.1c34.3,0,62.1-27.8,62.1-62.1
		C463.4,363.3,451.3,343.6,433.2,332.7z M401.4,428.2c-23.6,0-42.8-19.1-42.8-42.8c0-18.9,12.3-34.9,29.3-40.6v-41.6v-54.3v-18.6
		v-54.3v-6.5h27v175.3c17,5.7,29.3,21.7,29.3,40.6C444.1,409.1,425,428.2,401.4,428.2z"/>
</g>
</svg>
